<?xml version="1.0" encoding="utf-8" ?>
<svg baseProfile="full" height="100%" version="1.1" viewBox="-38.75,-31.875,77.5,63.75" width="100%" xmlns="http://www.w3.org/2000/svg" xmlns:ev="http://www.w3.org/2001/xml-events" xmlns:xlink="http://www.w3.org/1999/xlink"><defs><style type="text/css"><![CDATA[@font-face {
    font-family: 'FreeMono';
    src: url('FreeMono.ttf');
}

text {
    font-family: 'FreeMono';
}
]]></style></defs><g fill="#008070" id="shapes"><path d="M 5.51091059616309e-16 -9.0 A 9 9 0 0 0 5.51091059616309e-16 -9.0" fill="none" stroke="#008070" stroke-linecap="round" stroke-width="2" /><path d="M 4.500000000000001 -7.794228634059947 A 9 9 0 0 0 5.51091059616309e-16 -9.0" fill="none" stroke="#008070" stroke-linecap="round" stroke-width="2" /><path d="M 4.500000000000001 -7.794228634059947 A 9 9 0 0 0 4.500000000000001 -7.794228634059947" fill="none" stroke="#008070" stroke-linecap="round" stroke-width="2" /><path d="M 7.794228634059948 -4.499999999999999 A 9 9 0 0 0 4.500000000000001 -7.794228634059947" fill="none" stroke="#008070" stroke-linecap="round" stroke-width="2" /><path d="M 7.794228634059948 -4.499999999999999 A 9 9 0 0 0 7.794228634059948 -4.499999999999999" fill="none" stroke="#008070" stroke-linecap="round" stroke-width="2" /><path d="M 9.0 0.0 A 9 9 0 0 0 7.794228634059948 -4.499999999999999" fill="none" stroke="#008070" stroke-linecap="round" stroke-width="2" /><path d="M 9.0 0.0 A 9 9 0 0 0 9.0 0.0" fill="none" stroke="#008070" stroke-linecap="round" stroke-width="2" /><path d="M 7.794228634059948 4.499999999999999 A 9 9 0 0 0 9.0 0.0" fill="none" stroke="#008070" stroke-linecap="round" stroke-width="2" /><path d="M 7.794228634059948 4.499999999999999 A 9 9 0 0 0 7.794228634059948 4.499999999999999" fill="none" stroke="#008070" stroke-linecap="round" stroke-width="2" /><path d="M 4.500000000000001 7.794228634059947 A 9 9 0 0 0 7.794228634059948 4.499999999999999" fill="none" stroke="#008070" stroke-linecap="round" stroke-width="2" /><path d="M 4.500000000000001 7.794228634059947 A 9 9 0 0 0 4.500000000000001 7.794228634059947" fill="none" stroke="#008070" stroke-linecap="round" stroke-width="2" /><path d="M -4.499999999999998 7.794228634059948 A 9 9 0 0 0 -4.499999999999998 7.794228634059948" fill="none" stroke="#008070" stroke-linecap="round" stroke-width="2" /><path d="M -7.794228634059948 4.499999999999999 A 9 9 0 0 0 -4.499999999999998 7.794228634059948" fill="none" stroke="#008070" stroke-linecap="round" stroke-width="2" /><path d="M -7.794228634059948 4.499999999999999 A 9 9 0 0 0 -7.794228634059948 4.499999999999999" fill="none" stroke="#008070" stroke-linecap="round" stroke-width="2" /><path d="M -7.794228634059947 -4.500000000000001 A 9 9 0 0 0 -7.794228634059947 -4.500000000000001" fill="none" stroke="#008070" stroke-linecap="round" stroke-width="2" /><path d="M -4.5000000000000036 -7.794228634059945 A 9 9 0 0 0 -7.794228634059947 -4.500000000000001" fill="none" stroke="#008070" stroke-linecap="round" stroke-width="2" /><path d="M -4.5000000000000036 -7.794228634059945 A 9 9 0 0 0 -4.5000000000000036 -7.794228634059945" fill="none" stroke="#008070" stroke-linecap="round" stroke-width="2" /><path d="M -1.6532731788489267e-15 -9.0 A 9 9 0 0 0 -4.5000000000000036 -7.794228634059945" fill="none" stroke="#008070" stroke-linecap="round" stroke-width="2" /><path d="M 11.59110991546882 -3.105828541230249 A 12 12 0 0 0 11.59110991546882 -3.105828541230249" fill="none" stroke="#008070" stroke-linecap="round" stroke-width="2" /><path d="M 10.392304845413264 5.999999999999999 A 12 12 0 0 0 10.392304845413264 5.999999999999999" fill="none" stroke="#008070" stroke-linecap="round" stroke-width="2" /><path d="M 6.000000000000002 10.392304845413264 A 12 12 0 0 0 6.000000000000002 10.392304845413264" fill="none" stroke="#008070" stroke-linecap="round" stroke-width="2" /><path d="M -3.10582854123025 11.59110991546882 A 12 12 0 0 0 -3.10582854123025 11.59110991546882" fill="none" stroke="#008070" stroke-linecap="round" stroke-width="2" /><path d="M -10.392304845413264 5.999999999999999 A 12 12 0 0 0 -10.392304845413264 5.999999999999999" fill="none" stroke="#008070" stroke-linecap="round" stroke-width="2" /><path d="M -11.591109915468818 3.1058285412302524 A 12 12 0 0 0 -10.392304845413264 5.999999999999999" fill="none" stroke="#008070" stroke-linecap="round" stroke-width="2" /><path d="M -11.591109915468818 3.1058285412302524 A 12 12 0 0 0 -11.591109915468818 3.1058285412302524" fill="none" stroke="#008070" stroke-linecap="round" stroke-width="2" /><path d="M -12.0 1.4695761589768238e-15 A 12 12 0 0 0 -11.591109915468818 3.1058285412302524" fill="none" stroke="#008070" stroke-linecap="round" stroke-width="2" /><path d="M -12.0 1.4695761589768238e-15 A 12 12 0 0 0 -12.0 1.4695761589768238e-15" fill="none" stroke="#008070" stroke-linecap="round" stroke-width="2" /><path d="M -11.59110991546882 -3.1058285412302444 A 12 12 0 0 0 -12.0 1.4695761589768238e-15" fill="none" stroke="#008070" stroke-linecap="round" stroke-width="2" /><path d="M -11.59110991546882 -3.1058285412302444 A 12 12 0 0 0 -11.59110991546882 -3.1058285412302444" fill="none" stroke="#008070" stroke-linecap="round" stroke-width="2" /><path d="M -10.392304845413264 -6.000000000000002 A 12 12 0 0 0 -11.59110991546882 -3.1058285412302444" fill="none" stroke="#008070" stroke-linecap="round" stroke-width="2" /><path d="M -10.392304845413264 -6.000000000000002 A 12 12 0 0 0 -10.392304845413264 -6.000000000000002" fill="none" stroke="#008070" stroke-linecap="round" stroke-width="2" /><path d="M -6.000000000000005 -10.39230484541326 A 12 12 0 0 0 -6.000000000000005 -10.39230484541326" fill="none" stroke="#008070" stroke-linecap="round" stroke-width="2" /><path d="M 7.500000000000002 -12.990381056766578 A 15 15 0 0 0 7.500000000000002 -12.990381056766578" fill="none" stroke="#008070" stroke-linecap="round" stroke-width="2" /><path d="M 9.64181414529809 -11.49066664678467 A 15 15 0 0 0 7.500000000000002 -12.990381056766578" fill="none" stroke="#008070" stroke-linecap="round" stroke-width="2" /><path d="M 9.64181414529809 -11.49066664678467 A 15 15 0 0 0 9.64181414529809 -11.49066664678467" fill="none" stroke="#008070" stroke-linecap="round" stroke-width="2" /><path d="M 12.99038105676658 -7.499999999999999 A 15 15 0 0 0 12.99038105676658 -7.499999999999999" fill="none" stroke="#008070" stroke-linecap="round" stroke-width="2" /><path d="M 14.095389311788626 -5.130302149885031 A 15 15 0 0 0 12.99038105676658 -7.499999999999999" fill="none" stroke="#008070" stroke-linecap="round" stroke-width="2" /><path d="M 14.095389311788626 -5.130302149885031 A 15 15 0 0 0 14.095389311788626 -5.130302149885031" fill="none" stroke="#008070" stroke-linecap="round" stroke-width="2" /><path d="M 15.0 0.0 A 15 15 0 0 0 15.0 0.0" fill="none" stroke="#008070" stroke-linecap="round" stroke-width="2" /><path d="M 14.772116295183121 2.6047226650039548 A 15 15 0 0 0 15.0 0.0" fill="none" stroke="#008070" stroke-linecap="round" stroke-width="2" /><path d="M 14.772116295183121 2.6047226650039548 A 15 15 0 0 0 14.772116295183121 2.6047226650039548" fill="none" stroke="#008070" stroke-linecap="round" stroke-width="2" /><path d="M 14.095389311788626 5.130302149885031 A 15 15 0 0 0 14.772116295183121 2.6047226650039548" fill="none" stroke="#008070" stroke-linecap="round" stroke-width="2" /><path d="M 14.095389311788626 5.130302149885031 A 15 15 0 0 0 14.095389311788626 5.130302149885031" fill="none" stroke="#008070" stroke-linecap="round" stroke-width="2" /><path d="M 12.99038105676658 7.499999999999999 A 15 15 0 0 0 14.095389311788626 5.130302149885031" fill="none" stroke="#008070" stroke-linecap="round" stroke-width="2" /><path d="M 12.99038105676658 7.499999999999999 A 15 15 0 0 0 12.99038105676658 7.499999999999999" fill="none" stroke="#008070" stroke-linecap="round" stroke-width="2" /><path d="M 9.64181414529809 11.49066664678467 A 15 15 0 0 0 9.64181414529809 11.49066664678467" fill="none" stroke="#008070" stroke-linecap="round" stroke-width="2" /><path d="M 7.500000000000002 12.990381056766578 A 15 15 0 0 0 9.64181414529809 11.49066664678467" fill="none" stroke="#008070" stroke-linecap="round" stroke-width="2" /><path d="M 7.500000000000002 12.990381056766578 A 15 15 0 0 0 7.500000000000002 12.990381056766578" fill="none" stroke="#008070" stroke-linecap="round" stroke-width="2" /><path d="M 5.130302149885033 14.095389311788624 A 15 15 0 0 0 7.500000000000002 12.990381056766578" fill="none" stroke="#008070" stroke-linecap="round" stroke-width="2" /><path d="M 5.130302149885033 14.095389311788624 A 15 15 0 0 0 5.130302149885033 14.095389311788624" fill="none" stroke="#008070" stroke-linecap="round" stroke-width="2" /><path d="M 2.604722665003956 14.772116295183121 A 15 15 0 0 0 5.130302149885033 14.095389311788624" fill="none" stroke="#008070" stroke-linecap="round" stroke-width="2" /><path d="M 2.604722665003956 14.772116295183121 A 15 15 0 0 0 2.604722665003956 14.772116295183121" fill="none" stroke="#008070" stroke-linecap="round" stroke-width="2" /><path d="M 9.18485099360515e-16 15.0 A 15 15 0 0 0 2.604722665003956 14.772116295183121" fill="none" stroke="#008070" stroke-linecap="round" stroke-width="2" /><path d="M 9.18485099360515e-16 15.0 A 15 15 0 0 0 9.18485099360515e-16 15.0" fill="none" stroke="#008070" stroke-linecap="round" stroke-width="2" /><circle cx="0" cy="0" fill="black" r="4" /><path d="M 3.6739403974420594e-16 -6.0 A 6 6 0 0 0 3.6739403974420594e-16 -6.0" fill="none" stroke="black" stroke-linecap="round" stroke-width="2" /><path d="M -4.242640687119286 -4.242640687119285 A 6 6 0 1 0 4.242640687119286 -4.242640687119285" fill="none" stroke="black" stroke-linecap="round" stroke-width="2" /></g><text fill="black" style="font-size:5px; font-weight: bold; text-anchor: middle;" x="0" y="21">Okay!</text></svg>