<?xml version="1.0" encoding="utf-8" ?>
<svg baseProfile="full" height="100%" version="1.1" viewBox="-32.5,-28.75,65.0,57.5" width="100%" xmlns="http://www.w3.org/2000/svg" xmlns:ev="http://www.w3.org/2001/xml-events" xmlns:xlink="http://www.w3.org/1999/xlink"><defs><style type="text/css"><![CDATA[@font-face {
    font-family: 'FreeMono';
    src: url('FreeMono.ttf');
}

text {
    font-family: 'FreeMono';
}
]]></style></defs><g fill="#008070" id="shapes"><circle cx="5.51091059616309e-16" cy="-9.0" r="1.0" /><circle cx="9.0" cy="0.0" r="1.0" /><path d="M 7.794228634059948 4.499999999999999 A 9 9 0 0 0 9.0 0.0" fill="none" stroke="#008070" stroke-width="2" /><circle cx="7.794228634059948" cy="4.499999999999999" r="1.0" /><path d="M 4.500000000000001 7.794228634059947 A 9 9 0 0 0 7.794228634059948 4.499999999999999" fill="none" stroke="#008070" stroke-width="2" /><circle cx="4.500000000000001" cy="7.794228634059947" r="1.0" /><circle cx="-7.794228634059948" cy="4.499999999999999" r="1.0" /><circle cx="-4.5000000000000036" cy="-7.794228634059945" r="1.0" /><path d="M -1.6532731788489267e-15 -9.0 A 9 9 0 0 0 -4.5000000000000036 -7.794228634059945" fill="none" stroke="#008070" stroke-width="2" /><circle cx="7.347880794884119e-16" cy="-12.0" r="1.0" /><circle cx="6.000000000000002" cy="-10.392304845413264" r="1.0" /><circle cx="12.0" cy="0.0" r="1.0" /><path d="M 11.59110991546882 3.105828541230249 A 12 12 0 0 0 12.0 0.0" fill="none" stroke="#008070" stroke-width="2" /><circle cx="11.59110991546882" cy="3.105828541230249" r="1.0" /><circle cx="7.347880794884119e-16" cy="12.0" r="1.0" /><circle cx="-5.999999999999997" cy="10.392304845413264" r="1.0" /><circle cx="-11.591109915468818" cy="3.1058285412302524" r="1.0" /><path d="M -12.0 1.4695761589768238e-15 A 12 12 0 0 0 -11.591109915468818 3.1058285412302524" fill="none" stroke="#008070" stroke-width="2" /><circle cx="-12.0" cy="1.4695761589768238e-15" r="1.0" /><circle cx="-10.392304845413264" cy="-6.000000000000002" r="1.0" /><path d="M -8.485281374238571 -8.48528137423857 A 12 12 0 0 0 -10.392304845413264 -6.000000000000002" fill="none" stroke="#008070" stroke-width="2" /><circle cx="-8.485281374238571" cy="-8.48528137423857" r="1.0" /><circle cx="9.64181414529809" cy="-11.49066664678467" r="1.0" /><path d="M 11.49066664678467 -9.641814145298088 A 15 15 0 0 0 9.64181414529809 -11.49066664678467" fill="none" stroke="#008070" stroke-width="2" /><circle cx="11.49066664678467" cy="-9.641814145298088" r="1.0" /><circle cx="0" cy="0" fill="black" r="4" /><circle cx="0" cy="-6" fill="black" r="1.0" /><circle cx="4.242640687119286" cy="-4.242640687119285" fill="black" r="1.0" /><circle cx="-4.242640687119286" cy="-4.242640687119285" fill="black" r="1.0" /><path d="M -4.242640687119286 -4.242640687119285 A 6 6 0 1 0 4.242640687119286 -4.242640687119285" fill="none" stroke="black" stroke-width="2" /></g><text fill="black" style="font-size:5px; font-weight: bold; text-anchor: middle;" x="0" y="21">OwO</text></svg>