<?xml version="1.0" encoding="utf-8" ?>
<svg baseProfile="full" height="100%" version="1.1" viewBox="-30.5,-27.75,61.0,55.5" width="100%" xmlns="http://www.w3.org/2000/svg" xmlns:ev="http://www.w3.org/2001/xml-events" xmlns:xlink="http://www.w3.org/1999/xlink"><defs><style type="text/css"><![CDATA[@font-face {
    font-family: 'FreeMono';
    src: url('FreeMono.ttf');
}

text {
    font-family: 'FreeMono';
}
]]></style></defs><g fill="#008070" id="shapes"><circle cx="5.51091059616309e-16" cy="-9.0" r="1.0" /><path d="M 4.500000000000001 -7.794228634059947 A 9 9 0 0 0 5.51091059616309e-16 -9.0" fill="none" stroke="#008070" stroke-width="2" /><circle cx="4.500000000000001" cy="-7.794228634059947" r="1.0" /><path d="M 7.794228634059948 -4.499999999999999 A 9 9 0 0 0 4.500000000000001 -7.794228634059947" fill="none" stroke="#008070" stroke-width="2" /><circle cx="7.794228634059948" cy="-4.499999999999999" r="1.0" /><path d="M 9.0 0.0 A 9 9 0 0 0 7.794228634059948 -4.499999999999999" fill="none" stroke="#008070" stroke-width="2" /><circle cx="9.0" cy="0.0" r="1.0" /><path d="M 7.794228634059948 4.499999999999999 A 9 9 0 0 0 9.0 0.0" fill="none" stroke="#008070" stroke-width="2" /><circle cx="7.794228634059948" cy="4.499999999999999" r="1.0" /><path d="M 4.500000000000001 7.794228634059947 A 9 9 0 0 0 7.794228634059948 4.499999999999999" fill="none" stroke="#008070" stroke-width="2" /><circle cx="4.500000000000001" cy="7.794228634059947" r="1.0" /><circle cx="-4.499999999999998" cy="7.794228634059948" r="1.0" /><path d="M -7.794228634059948 4.499999999999999 A 9 9 0 0 0 -4.499999999999998 7.794228634059948" fill="none" stroke="#008070" stroke-width="2" /><circle cx="-7.794228634059948" cy="4.499999999999999" r="1.0" /><path d="M -9.0 1.102182119232618e-15 A 9 9 0 0 0 -7.794228634059948 4.499999999999999" fill="none" stroke="#008070" stroke-width="2" /><circle cx="-9.0" cy="1.102182119232618e-15" r="1.0" /><circle cx="7.347880794884119e-16" cy="-12.0" r="1.0" /><path d="M 3.105828541230249 -11.59110991546882 A 12 12 0 0 0 7.347880794884119e-16 -12.0" fill="none" stroke="#008070" stroke-width="2" /><circle cx="3.105828541230249" cy="-11.59110991546882" r="1.0" /><path d="M 6.000000000000002 -10.392304845413264 A 12 12 0 0 0 3.105828541230249 -11.59110991546882" fill="none" stroke="#008070" stroke-width="2" /><circle cx="6.000000000000002" cy="-10.392304845413264" r="1.0" /><path d="M 8.485281374238571 -8.48528137423857 A 12 12 0 0 0 6.000000000000002 -10.392304845413264" fill="none" stroke="#008070" stroke-width="2" /><circle cx="8.485281374238571" cy="-8.48528137423857" r="1.0" /><path d="M 10.392304845413264 -5.999999999999999 A 12 12 0 0 0 8.485281374238571 -8.48528137423857" fill="none" stroke="#008070" stroke-width="2" /><circle cx="10.392304845413264" cy="-5.999999999999999" r="1.0" /><path d="M 11.59110991546882 -3.105828541230249 A 12 12 0 0 0 10.392304845413264 -5.999999999999999" fill="none" stroke="#008070" stroke-width="2" /><circle cx="11.59110991546882" cy="-3.105828541230249" r="1.0" /><path d="M 12.0 0.0 A 12 12 0 0 0 11.59110991546882 -3.105828541230249" fill="none" stroke="#008070" stroke-width="2" /><circle cx="12.0" cy="0.0" r="1.0" /><path d="M 11.59110991546882 3.105828541230249 A 12 12 0 0 0 12.0 0.0" fill="none" stroke="#008070" stroke-width="2" /><circle cx="11.59110991546882" cy="3.105828541230249" r="1.0" /><path d="M 10.392304845413264 5.999999999999999 A 12 12 0 0 0 11.59110991546882 3.105828541230249" fill="none" stroke="#008070" stroke-width="2" /><circle cx="10.392304845413264" cy="5.999999999999999" r="1.0" /><path d="M 8.485281374238571 8.48528137423857 A 12 12 0 0 0 10.392304845413264 5.999999999999999" fill="none" stroke="#008070" stroke-width="2" /><circle cx="8.485281374238571" cy="8.48528137423857" r="1.0" /><circle cx="0" cy="0" fill="black" r="4" /><circle cx="0" cy="-6" fill="black" r="1.0" /><circle cx="4.242640687119286" cy="-4.242640687119285" fill="black" r="1.0" /><circle cx="-4.242640687119286" cy="-4.242640687119285" fill="black" r="1.0" /><path d="M -4.242640687119286 -4.242640687119285 A 6 6 0 1 0 4.242640687119286 -4.242640687119285" fill="none" stroke="black" stroke-width="2" /></g><text fill="black" style="font-size:5px; font-weight: bold; text-anchor: middle;" x="0" y="18">0</text></svg>