<?xml version="1.0" encoding="utf-8" ?>
<svg baseProfile="full" height="100%" version="1.1" viewBox="-108.75,-66.875,217.5,133.75" width="100%" xmlns="http://www.w3.org/2000/svg" xmlns:ev="http://www.w3.org/2001/xml-events" xmlns:xlink="http://www.w3.org/1999/xlink"><defs><style type="text/css"><![CDATA[@font-face {
    font-family: 'FreeMono';
    src: url('FreeMono.ttf');
}

text {
    font-family: 'FreeMono';
}
]]></style></defs><g fill="#008070" id="shapes"><circle cx="5.51091059616309e-16" cy="-9.0" r="1.0" /><circle cx="9.0" cy="0.0" r="1.0" /><path d="M 7.794228634059948 4.499999999999999 A 9 9 0 0 0 9.0 0.0" fill="none" stroke="#008070" stroke-width="2" /><circle cx="7.794228634059948" cy="4.499999999999999" r="1.0" /><path d="M 4.500000000000001 7.794228634059947 A 9 9 0 0 0 7.794228634059948 4.499999999999999" fill="none" stroke="#008070" stroke-width="2" /><circle cx="4.500000000000001" cy="7.794228634059947" r="1.0" /><path d="M 5.51091059616309e-16 9.0 A 9 9 0 0 0 4.500000000000001 7.794228634059947" fill="none" stroke="#008070" stroke-width="2" /><circle cx="5.51091059616309e-16" cy="9.0" r="1.0" /><path d="M -4.499999999999998 7.794228634059948 A 9 9 0 0 0 5.51091059616309e-16 9.0" fill="none" stroke="#008070" stroke-width="2" /><circle cx="-4.499999999999998" cy="7.794228634059948" r="1.0" /><circle cx="-9.0" cy="1.102182119232618e-15" r="1.0" /><circle cx="-4.5000000000000036" cy="-7.794228634059945" r="1.0" /><path d="M -1.6532731788489267e-15 -9.0 A 9 9 0 0 0 -4.5000000000000036 -7.794228634059945" fill="none" stroke="#008070" stroke-width="2" /><circle cx="3.105828541230249" cy="-11.59110991546882" r="1.0" /><circle cx="8.485281374238571" cy="-8.48528137423857" r="1.0" /><path d="M 10.392304845413264 -5.999999999999999 A 12 12 0 0 0 8.485281374238571 -8.48528137423857" fill="none" stroke="#008070" stroke-width="2" /><circle cx="10.392304845413264" cy="-5.999999999999999" r="1.0" /><circle cx="11.59110991546882" cy="3.105828541230249" r="1.0" /><path d="M 10.392304845413264 5.999999999999999 A 12 12 0 0 0 11.59110991546882 3.105828541230249" fill="none" stroke="#008070" stroke-width="2" /><circle cx="10.392304845413264" cy="5.999999999999999" r="1.0" /><circle cx="3.105828541230249" cy="11.59110991546882" r="1.0" /><path d="M 7.347880794884119e-16 12.0 A 12 12 0 0 0 3.105828541230249 11.59110991546882" fill="none" stroke="#008070" stroke-width="2" /><circle cx="7.347880794884119e-16" cy="12.0" r="1.0" /><circle cx="-8.48528137423857" cy="8.485281374238571" r="1.0" /><path d="M -10.392304845413264 5.999999999999999 A 12 12 0 0 0 -8.48528137423857 8.485281374238571" fill="none" stroke="#008070" stroke-width="2" /><circle cx="-10.392304845413264" cy="5.999999999999999" r="1.0" /><circle cx="-11.59110991546882" cy="-3.1058285412302444" r="1.0" /><path d="M -10.392304845413264 -6.000000000000002 A 12 12 0 0 0 -11.59110991546882 -3.1058285412302444" fill="none" stroke="#008070" stroke-width="2" /><circle cx="-10.392304845413264" cy="-6.000000000000002" r="1.0" /><circle cx="-3.1058285412302475" cy="-11.59110991546882" r="1.0" /><circle cx="9.18485099360515e-16" cy="-15.0" r="1.0" /><path d="M 2.604722665003956 -14.772116295183121 A 15 15 0 0 0 9.18485099360515e-16 -15.0" fill="none" stroke="#008070" stroke-width="2" /><circle cx="2.604722665003956" cy="-14.772116295183121" r="1.0" /><path d="M 5.130302149885033 -14.095389311788624 A 15 15 0 0 0 2.604722665003956 -14.772116295183121" fill="none" stroke="#008070" stroke-width="2" /><circle cx="5.130302149885033" cy="-14.095389311788624" r="1.0" /><path d="M 7.500000000000002 -12.990381056766578 A 15 15 0 0 0 5.130302149885033 -14.095389311788624" fill="none" stroke="#008070" stroke-width="2" /><circle cx="7.500000000000002" cy="-12.990381056766578" r="1.0" /><path d="M 9.64181414529809 -11.49066664678467 A 15 15 0 0 0 7.500000000000002 -12.990381056766578" fill="none" stroke="#008070" stroke-width="2" /><circle cx="9.64181414529809" cy="-11.49066664678467" r="1.0" /><path d="M 11.49066664678467 -9.641814145298088 A 15 15 0 0 0 9.64181414529809 -11.49066664678467" fill="none" stroke="#008070" stroke-width="2" /><circle cx="11.49066664678467" cy="-9.641814145298088" r="1.0" /><circle cx="15.0" cy="0.0" r="1.0" /><path d="M 14.772116295183121 2.6047226650039548 A 15 15 0 0 0 15.0 0.0" fill="none" stroke="#008070" stroke-width="2" /><circle cx="14.772116295183121" cy="2.6047226650039548" r="1.0" /><circle cx="11.49066664678467" cy="9.641814145298088" r="1.0" /><circle cx="7.500000000000002" cy="12.990381056766578" r="1.0" /><path d="M 5.130302149885033 14.095389311788624 A 15 15 0 0 0 7.500000000000002 12.990381056766578" fill="none" stroke="#008070" stroke-width="2" /><circle cx="5.130302149885033" cy="14.095389311788624" r="1.0" /><circle cx="9.18485099360515e-16" cy="15.0" r="1.0" /><circle cx="-5.130302149885031" cy="14.095389311788626" r="1.0" /><circle cx="-11.490666646784668" cy="9.641814145298092" r="1.0" /><path d="M -12.99038105676658 7.499999999999999 A 15 15 0 0 0 -11.490666646784668 9.641814145298092" fill="none" stroke="#008070" stroke-width="2" /><circle cx="-12.99038105676658" cy="7.499999999999999" r="1.0" /><circle cx="-15.0" cy="1.83697019872103e-15" r="1.0" /><circle cx="-12.990381056766578" cy="-7.500000000000002" r="1.0" /><path d="M -11.49066664678467 -9.641814145298088 A 15 15 0 0 0 -12.990381056766578 -7.500000000000002" fill="none" stroke="#008070" stroke-width="2" /><circle cx="-11.49066664678467" cy="-9.641814145298088" r="1.0" /><circle cx="-7.500000000000007" cy="-12.990381056766577" r="1.0" /><path d="M -5.130302149885041 -14.095389311788622 A 15 15 0 0 0 -7.500000000000007 -12.990381056766577" fill="none" stroke="#008070" stroke-width="2" /><circle cx="-5.130302149885041" cy="-14.095389311788622" r="1.0" /><circle cx="2.1936481812926547" cy="-17.865830729543795" r="1.0" /><path d="M 4.354594120794022 -17.465323072967937 A 18 18 0 0 0 2.1936481812926547 -17.865830729543795" fill="none" stroke="#008070" stroke-width="2" /><circle cx="4.354594120794022" cy="-17.465323072967937" r="1.0" /><circle cx="10.32437585431883" cy="-14.744736797201853" r="1.0" /><circle cx="13.584772444009898" cy="-11.809062521829128" r="1.0" /><circle cx="16.03811743539062" cy="-8.171828995311841" r="1.0" /><path d="M 16.914467174146353 -6.156362579862037 A 18 18 0 0 0 16.03811743539062 -8.171828995311841" fill="none" stroke="#008070" stroke-width="2" /><circle cx="16.914467174146353" cy="-6.156362579862037" r="1.0" /><circle cx="17.901394116628918" cy="-1.8815123388177621" r="1.0" /><path d="M 17.997258512815044 0.3141433158711032 A 18 18 0 0 0 17.901394116628918 -1.8815123388177621" fill="none" stroke="#008070" stroke-width="2" /><circle cx="17.997258512815044" cy="0.3141433158711032" r="1.0" /><circle cx="16.689309382202175" cy="6.742918681486416" r="1.0" /><path d="M 15.743154728509124 8.726573164434066 A 18 18 0 0 0 16.689309382202175 6.742918681486416" fill="none" stroke="#008070" stroke-width="2" /><circle cx="15.743154728509124" cy="8.726573164434066" r="1.0" /><path d="M 14.562305898749054 10.580134541264517 A 18 18 0 0 0 15.743154728509124 8.726573164434066" fill="none" stroke="#008070" stroke-width="2" /><circle cx="14.562305898749054" cy="10.580134541264517" r="1.0" /><path d="M 13.16436662914507 12.275970481124972 A 18 18 0 0 0 14.562305898749054 10.580134541264517" fill="none" stroke="#008070" stroke-width="2" /><circle cx="13.16436662914507" cy="12.275970481124972" r="1.0" /><path d="M 11.57017697435771 13.788799976141604 A 18 18 0 0 0 13.16436662914507 12.275970481124972" fill="none" stroke="#008070" stroke-width="2" /><circle cx="11.57017697435771" cy="13.788799976141604" r="1.0" /><path d="M 9.80350263027049 15.09607022301763 A 18 18 0 0 0 11.57017697435771 13.788799976141604" fill="none" stroke="#008070" stroke-width="2" /><circle cx="9.80350263027049" cy="15.09607022301763" r="1.0" /><path d="M 7.890680642203394 16.178292833385008 A 18 18 0 0 0 9.80350263027049 15.09607022301763" fill="none" stroke="#008070" stroke-width="2" /><circle cx="7.890680642203394" cy="16.178292833385008" r="1.0" /><path d="M 5.860226780228822 17.019334360787703 A 18 18 0 0 0 7.890680642203394 16.178292833385008" fill="none" stroke="#008070" stroke-width="2" /><circle cx="5.860226780228822" cy="17.019334360787703" r="1.0" /><circle cx="-0.6281909406450132" cy="17.989034886343724" r="1.0" /><path d="M -2.8158203707241585 17.778390130712477 A 18 18 0 0 0 -0.6281909406450132 17.989034886343724" fill="none" stroke="#008070" stroke-width="2" /><circle cx="-2.8158203707241585" cy="17.778390130712477" r="1.0" /><circle cx="-7.033160312806925" cy="16.569087362143925" r="1.0" /><circle cx="-10.832670416736871" cy="14.375439180851268" r="1.0" /><circle cx="-13.988627306225473" cy="11.327767038897079" r="1.0" /><path d="M -15.264865730815668 9.538546756197688 A 18 18 0 0 0 -13.988627306225473 11.327767038897079" fill="none" stroke="#008070" stroke-width="2" /><circle cx="-15.264865730815668" cy="9.538546756197688" r="1.0" /><circle cx="-17.956152904676834" cy="1.2556165273942594" r="1.0" /><path d="M -17.975331625582328 -0.9420472123729842 A 18 18 0 0 0 -17.956152904676834 1.2556165273942594" fill="none" stroke="#008070" stroke-width="2" /><circle cx="-17.975331625582328" cy="-0.9420472123729842" r="1.0" /><circle cx="-17.21348560733464" cy="-5.262690685009255" r="1.0" /><circle cx="-15.429011412638022" cy="-9.270685348380974" r="1.0" /><path d="M -14.184193564921 -11.081906555861842 A 18 18 0 0 0 -15.429011412638022 -9.270685348380974" fill="none" stroke="#008070" stroke-width="2" /><circle cx="-14.184193564921" cy="-11.081906555861842" r="1.0" /><path d="M -12.727922061357859 -12.727922061357855 A 18 18 0 0 0 -14.184193564921 -11.081906555861842" fill="none" stroke="#008070" stroke-width="2" /><circle cx="-12.727922061357859" cy="-12.727922061357855" r="1.0" /><circle cx="-7.321259575364402" cy="-16.443818237566816" r="1.0" /><path d="M -5.262690685009268 -17.213485607334636 A 18 18 0 0 0 -7.321259575364402 -16.443818237566816" fill="none" stroke="#008070" stroke-width="2" /><circle cx="-5.262690685009268" cy="-17.213485607334636" r="1.0" /><path d="M -3.125667198004746 -17.726539554219745 A 18 18 0 0 0 -5.262690685009268 -17.213485607334636" fill="none" stroke="#008070" stroke-width="2" /><circle cx="-3.125667198004746" cy="-17.726539554219745" r="1.0" /><circle cx="1.2858791391047208e-15" cy="-21.0" r="1.0" /><path d="M 2.1950977286207225 -20.88495980273374 A 21 21 0 0 0 1.2858791391047208e-15 -21.0" fill="none" stroke="#008070" stroke-width="2" /><circle cx="2.1950977286207225" cy="-20.88495980273374" r="1.0" /><path d="M 4.3661455071729485 -20.541099615409916 A 21 21 0 0 0 2.1950977286207225 -20.88495980273374" fill="none" stroke="#008070" stroke-width="2" /><circle cx="4.3661455071729485" cy="-20.541099615409916" r="1.0" /><path d="M 6.4893568818738965 -19.972186842198223 A 21 21 0 0 0 4.3661455071729485 -20.541099615409916" fill="none" stroke="#008070" stroke-width="2" /><circle cx="6.4893568818738965" cy="-19.972186842198223" r="1.0" /><path d="M 8.541469504591804 -19.18445461049462 A 21 21 0 0 0 6.4893568818738965 -19.972186842198223" fill="none" stroke="#008070" stroke-width="2" /><circle cx="8.541469504591804" cy="-19.18445461049462" r="1.0" /><circle cx="14.051742733536024" cy="-15.606041335025276" r="1.0" /><path d="M 15.60604133502528 -14.051742733536024 A 21 21 0 0 0 14.051742733536024 -15.606041335025276" fill="none" stroke="#008070" stroke-width="2" /><circle cx="15.60604133502528" cy="-14.051742733536024" r="1.0" /><path d="M 16.989356881873896 -12.343490298141935 A 21 21 0 0 0 15.60604133502528 -14.051742733536024" fill="none" stroke="#008070" stroke-width="2" /><circle cx="16.989356881873896" cy="-12.343490298141935" r="1.0" /><path d="M 18.186533479473212 -10.499999999999998 A 21 21 0 0 0 16.989356881873896 -12.343490298141935" fill="none" stroke="#008070" stroke-width="2" /><circle cx="18.186533479473212" cy="-10.499999999999998" r="1.0" /><path d="M 19.18445461049462 -8.541469504591802 A 21 21 0 0 0 18.186533479473212 -10.499999999999998" fill="none" stroke="#008070" stroke-width="2" /><circle cx="19.18445461049462" cy="-8.541469504591802" r="1.0" /><path d="M 19.972186842198223 -6.489356881873896 A 21 21 0 0 0 19.18445461049462 -8.541469504591802" fill="none" stroke="#008070" stroke-width="2" /><circle cx="19.972186842198223" cy="-6.489356881873896" r="1.0" /><circle cx="20.88495980273374" cy="-2.1950977286207225" r="1.0" /><path d="M 21.0 0.0 A 21 21 0 0 0 20.88495980273374 -2.1950977286207225" fill="none" stroke="#008070" stroke-width="2" /><circle cx="21.0" cy="0.0" r="1.0" /><circle cx="19.972186842198223" cy="6.489356881873896" r="1.0" /><circle cx="18.186533479473212" cy="10.499999999999998" r="1.0" /><path d="M 16.989356881873896 12.343490298141935 A 21 21 0 0 0 18.186533479473212 10.499999999999998" fill="none" stroke="#008070" stroke-width="2" /><circle cx="16.989356881873896" cy="12.343490298141935" r="1.0" /><circle cx="14.051742733536024" cy="15.606041335025276" r="1.0" /><circle cx="10.500000000000002" cy="18.186533479473212" r="1.0" /><circle cx="6.4893568818738965" cy="19.972186842198223" r="1.0" /><circle cx="1.2858791391047208e-15" cy="21.0" r="1.0" /><path d="M -2.19509772862072 20.884959802733743 A 21 21 0 0 0 1.2858791391047208e-15 21.0" fill="none" stroke="#008070" stroke-width="2" /><circle cx="-2.19509772862072" cy="20.884959802733743" r="1.0" /><circle cx="-6.489356881873894" cy="19.972186842198226" r="1.0" /><path d="M -8.5414695045918 19.18445461049462 A 21 21 0 0 0 -6.489356881873894 19.972186842198226" fill="none" stroke="#008070" stroke-width="2" /><circle cx="-8.5414695045918" cy="19.18445461049462" r="1.0" /><path d="M -10.499999999999995 18.186533479473212 A 21 21 0 0 0 -8.5414695045918 19.18445461049462" fill="none" stroke="#008070" stroke-width="2" /><circle cx="-10.499999999999995" cy="18.186533479473212" r="1.0" /><path d="M -12.343490298141933 16.989356881873896 A 21 21 0 0 0 -10.499999999999995 18.186533479473212" fill="none" stroke="#008070" stroke-width="2" /><circle cx="-12.343490298141933" cy="16.989356881873896" r="1.0" /><circle cx="-19.184454610494615" cy="8.54146950459181" r="1.0" /><circle cx="-20.88495980273374" cy="2.1950977286207283" r="1.0" /><circle cx="-20.884959802733743" cy="-2.195097728620714" r="1.0" /><path d="M -20.54109961540992 -4.3661455071729405 A 21 21 0 0 0 -20.884959802733743 -2.195097728620714" fill="none" stroke="#008070" stroke-width="2" /><circle cx="-20.54109961540992" cy="-4.3661455071729405" r="1.0" /><circle cx="-18.186533479473212" cy="-10.500000000000002" r="1.0" /><circle cx="-15.60604133502528" cy="-14.051742733536024" r="1.0" /><path d="M -14.051742733536027 -15.606041335025274 A 21 21 0 0 0 -15.60604133502528 -14.051742733536024" fill="none" stroke="#008070" stroke-width="2" /><circle cx="-14.051742733536027" cy="-15.606041335025274" r="1.0" /><path d="M -12.343490298141939 -16.989356881873896 A 21 21 0 0 0 -14.051742733536027 -15.606041335025274" fill="none" stroke="#008070" stroke-width="2" /><circle cx="-12.343490298141939" cy="-16.989356881873896" r="1.0" /><circle cx="-6.489356881873899" cy="-19.972186842198223" r="1.0" /><circle cx="-2.1950977286207207" cy="-20.884959802733743" r="1.0" /><path d="M -3.857637417314163e-15 -21.0 A 21 21 0 0 0 -2.1950977286207207 -20.884959802733743" fill="none" stroke="#008070" stroke-width="2" /><circle cx="2.0917378259437953" cy="-23.908672754201895" r="1.0" /><circle cx="6.211657082460498" cy="-23.18221983093764" r="1.0" /><circle cx="10.142838281776786" cy="-21.751386888879598" r="1.0" /><path d="M 12.000000000000004 -20.784609690826528 A 24 24 0 0 0 10.142838281776786 -21.751386888879598" fill="none" stroke="#008070" stroke-width="2" /><circle cx="12.000000000000004" cy="-20.784609690826528" r="1.0" /><path d="M 13.765834472425109 -19.659649062935802 A 24 24 0 0 0 12.000000000000004 -20.784609690826528" fill="none" stroke="#008070" stroke-width="2" /><circle cx="13.765834472425109" cy="-19.659649062935802" r="1.0" /><path d="M 15.426902632476946 -18.385066634855473 A 24 24 0 0 0 13.765834472425109 -19.659649062935802" fill="none" stroke="#008070" stroke-width="2" /><circle cx="15.426902632476946" cy="-18.385066634855473" r="1.0" /><circle cx="19.659649062935802" cy="-13.765834472425105" r="1.0" /><path d="M 20.784609690826528 -11.999999999999998 A 24 24 0 0 0 19.659649062935802 -13.765834472425105" fill="none" stroke="#008070" stroke-width="2" /><circle cx="20.784609690826528" cy="-11.999999999999998" r="1.0" /><circle cx="23.18221983093764" cy="-6.211657082460498" r="1.0" /><path d="M 23.63538607229299 -4.167556264006328 A 24 24 0 0 0 23.18221983093764 -6.211657082460498" fill="none" stroke="#008070" stroke-width="2" /><circle cx="23.63538607229299" cy="-4.167556264006328" r="1.0" /><path d="M 23.908672754201895 -2.091737825943796 A 24 24 0 0 0 23.63538607229299 -4.167556264006328" fill="none" stroke="#008070" stroke-width="2" /><circle cx="23.908672754201895" cy="-2.091737825943796" r="1.0" /><path d="M 24.0 0.0 A 24 24 0 0 0 23.908672754201895 -2.091737825943796" fill="none" stroke="#008070" stroke-width="2" /><circle cx="24.0" cy="0.0" r="1.0" /><circle cx="19.659649062935802" cy="13.765834472425105" r="1.0" /><path d="M 18.385066634855473 15.426902632476942 A 24 24 0 0 0 19.659649062935802 13.765834472425105" fill="none" stroke="#008070" stroke-width="2" /><circle cx="18.385066634855473" cy="15.426902632476942" r="1.0" /><circle cx="13.765834472425109" cy="19.659649062935802" r="1.0" /><path d="M 12.000000000000004 20.784609690826528 A 24 24 0 0 0 13.765834472425109 19.659649062935802" fill="none" stroke="#008070" stroke-width="2" /><circle cx="12.000000000000004" cy="20.784609690826528" r="1.0" /><circle cx="6.211657082460498" cy="23.18221983093764" r="1.0" /><path d="M 4.16755626400633 23.63538607229299 A 24 24 0 0 0 6.211657082460498 23.18221983093764" fill="none" stroke="#008070" stroke-width="2" /><circle cx="4.16755626400633" cy="23.63538607229299" r="1.0" /><path d="M 2.0917378259437953 23.908672754201895 A 24 24 0 0 0 4.16755626400633 23.63538607229299" fill="none" stroke="#008070" stroke-width="2" /><circle cx="2.0917378259437953" cy="23.908672754201895" r="1.0" /><path d="M 1.4695761589768238e-15 24.0 A 24 24 0 0 0 2.0917378259437953 23.908672754201895" fill="none" stroke="#008070" stroke-width="2" /><circle cx="1.4695761589768238e-15" cy="24.0" r="1.0" /><path d="M -2.0917378259437975 23.908672754201895 A 24 24 0 0 0 1.4695761589768238e-15 24.0" fill="none" stroke="#008070" stroke-width="2" /><circle cx="-2.0917378259437975" cy="23.908672754201895" r="1.0" /><circle cx="-8.20848343981605" cy="22.552622898861802" r="1.0" /><path d="M -10.142838281776784 21.7513868888796 A 24 24 0 0 0 -8.20848343981605 22.552622898861802" fill="none" stroke="#008070" stroke-width="2" /><circle cx="-10.142838281776784" cy="21.7513868888796" r="1.0" /><circle cx="-15.426902632476946" cy="18.385066634855473" r="1.0" /><path d="M -16.97056274847714 16.970562748477143 A 24 24 0 0 0 -15.426902632476946 18.385066634855473" fill="none" stroke="#008070" stroke-width="2" /><circle cx="-16.97056274847714" cy="16.970562748477143" r="1.0" /><path d="M -18.38506663485547 15.426902632476947 A 24 24 0 0 0 -16.97056274847714 16.970562748477143" fill="none" stroke="#008070" stroke-width="2" /><circle cx="-18.38506663485547" cy="15.426902632476947" r="1.0" /><circle cx="-21.751386888879598" cy="10.142838281776788" r="1.0" /><path d="M -22.5526228988618 8.208483439816053 A 24 24 0 0 0 -21.751386888879598 10.142838281776788" fill="none" stroke="#008070" stroke-width="2" /><circle cx="-22.5526228988618" cy="8.208483439816053" r="1.0" /><path d="M -23.182219830937637 6.211657082460505 A 24 24 0 0 0 -22.5526228988618 8.208483439816053" fill="none" stroke="#008070" stroke-width="2" /><circle cx="-23.182219830937637" cy="6.211657082460505" r="1.0" /><path d="M -23.63538607229299 4.167556264006326 A 24 24 0 0 0 -23.182219830937637 6.211657082460505" fill="none" stroke="#008070" stroke-width="2" /><circle cx="-23.63538607229299" cy="4.167556264006326" r="1.0" /><circle cx="-24.0" cy="2.9391523179536475e-15" r="1.0" /><circle cx="-23.63538607229299" cy="-4.167556264006331" r="1.0" /><path d="M -23.18221983093764 -6.211657082460489 A 24 24 0 0 0 -23.63538607229299 -4.167556264006331" fill="none" stroke="#008070" stroke-width="2" /><circle cx="-23.18221983093764" cy="-6.211657082460489" r="1.0" /><path d="M -22.552622898861802 -8.208483439816048 A 24 24 0 0 0 -23.18221983093764 -6.211657082460489" fill="none" stroke="#008070" stroke-width="2" /><circle cx="-22.552622898861802" cy="-8.208483439816048" r="1.0" /><path d="M -21.7513868888796 -10.142838281776783 A 24 24 0 0 0 -22.552622898861802 -8.208483439816048" fill="none" stroke="#008070" stroke-width="2" /><circle cx="-21.7513868888796" cy="-10.142838281776783" r="1.0" /><path d="M -20.784609690826528 -12.000000000000004 A 24 24 0 0 0 -21.7513868888796 -10.142838281776783" fill="none" stroke="#008070" stroke-width="2" /><circle cx="-20.784609690826528" cy="-12.000000000000004" r="1.0" /><path d="M -19.65964906293581 -13.7658344724251 A 24 24 0 0 0 -20.784609690826528 -12.000000000000004" fill="none" stroke="#008070" stroke-width="2" /><circle cx="-19.65964906293581" cy="-13.7658344724251" r="1.0" /><path d="M -18.385066634855473 -15.426902632476942 A 24 24 0 0 0 -19.65964906293581 -13.7658344724251" fill="none" stroke="#008070" stroke-width="2" /><circle cx="-18.385066634855473" cy="-15.426902632476942" r="1.0" /><circle cx="-13.765834472425112" cy="-19.6596490629358" r="1.0" /><circle cx="-10.142838281776799" cy="-21.751386888879594" r="1.0" /><circle cx="-6.211657082460495" cy="-23.18221983093764" r="1.0" /><circle cx="1.6532731788489269e-15" cy="-27.0" r="1.0" /><path d="M 1.8834247910913873 -26.934229357015255 A 27 27 0 0 0 1.6532731788489269e-15 -27.0" fill="none" stroke="#008070" stroke-width="2" /><circle cx="1.8834247910913873" cy="-26.934229357015255" r="1.0" /><circle cx="7.442208607058977" cy="-25.95406579033461" r="1.0" /><path d="M 9.234543869793058 -25.371700761219525 A 27 27 0 0 0 7.442208607058977 -25.95406579033461" fill="none" stroke="#008070" stroke-width="2" /><circle cx="9.234543869793058" cy="-25.371700761219525" r="1.0" /><path d="M 10.981889363046605 -24.665727356350224 A 27 27 0 0 0 9.234543869793058 -25.371700761219525" fill="none" stroke="#008070" stroke-width="2" /><circle cx="10.981889363046605" cy="-24.665727356350224" r="1.0" /><path d="M 12.675732195219053 -23.839585007191026 A 27 27 0 0 0 10.981889363046605 -24.665727356350224" fill="none" stroke="#008070" stroke-width="2" /><circle cx="12.675732195219053" cy="-23.839585007191026" r="1.0" /><path d="M 14.307820134296533 -22.8972985962235 A 27 27 0 0 0 12.675732195219053 -23.839585007191026" fill="none" stroke="#008070" stroke-width="2" /><circle cx="14.307820134296533" cy="-22.8972985962235" r="1.0" /><path d="M 15.870201811896775 -21.843458848123582 A 27 27 0 0 0 14.307820134296533 -22.8972985962235" fill="none" stroke="#008070" stroke-width="2" /><circle cx="15.870201811896775" cy="-21.843458848123582" r="1.0" /><path d="M 17.35526546153656 -20.683199964212406 A 27 27 0 0 0 15.870201811896775 -21.843458848123582" fill="none" stroke="#008070" stroke-width="2" /><circle cx="17.35526546153656" cy="-20.683199964212406" r="1.0" /><circle cx="21.276290347381494" cy="-16.62285983379277" r="1.0" /><path d="M 22.384014458986123 -15.098208393710166 A 27 27 0 0 0 21.276290347381494 -16.62285983379277" fill="none" stroke="#008070" stroke-width="2" /><circle cx="22.384014458986123" cy="-15.098208393710166" r="1.0" /><path d="M 23.382685902179844 -13.499999999999998 A 27 27 0 0 0 22.384014458986123 -15.098208393710166" fill="none" stroke="#008070" stroke-width="2" /><circle cx="23.382685902179844" cy="-13.499999999999998" r="1.0" /><path d="M 24.26743925007751 -11.83602096330509 A 27 27 0 0 0 23.382685902179844 -13.499999999999998" fill="none" stroke="#008070" stroke-width="2" /><circle cx="24.26743925007751" cy="-11.83602096330509" r="1.0" /><path d="M 25.03396407330326 -10.114378022229625 A 27 27 0 0 0 24.26743925007751 -11.83602096330509" fill="none" stroke="#008070" stroke-width="2" /><circle cx="25.03396407330326" cy="-10.114378022229625" r="1.0" /><circle cx="26.197984609451904" cy="-6.531891181191028" r="1.0" /><circle cx="26.85209117494338" cy="-2.822268508226643" r="1.0" /><circle cx="26.983552329515586" cy="0.9422864109675262" r="1.0" /><circle cx="26.589809331329615" cy="4.688500797007119" r="1.0" /><circle cx="25.03396407330326" cy="10.114378022229625" r="1.0" /><path d="M 24.26743925007751 11.83602096330509 A 27 27 0 0 0 25.03396407330326 10.114378022229625" fill="none" stroke="#008070" stroke-width="2" /><circle cx="24.26743925007751" cy="11.83602096330509" r="1.0" /><path d="M 23.382685902179844 13.499999999999998 A 27 27 0 0 0 24.26743925007751 11.83602096330509" fill="none" stroke="#008070" stroke-width="2" /><circle cx="23.382685902179844" cy="13.499999999999998" r="1.0" /><path d="M 22.384014458986123 15.098208393710166 A 27 27 0 0 0 23.382685902179844 13.499999999999998" fill="none" stroke="#008070" stroke-width="2" /><circle cx="22.384014458986123" cy="15.098208393710166" r="1.0" /><path d="M 21.276290347381494 16.62285983379277 A 27 27 0 0 0 22.384014458986123 15.098208393710166" fill="none" stroke="#008070" stroke-width="2" /><circle cx="21.276290347381494" cy="16.62285983379277" r="1.0" /><circle cx="17.35526546153656" cy="20.683199964212406" r="1.0" /><path d="M 15.870201811896775 21.843458848123582 A 27 27 0 0 0 17.35526546153656 20.683199964212406" fill="none" stroke="#008070" stroke-width="2" /><circle cx="15.870201811896775" cy="21.843458848123582" r="1.0" /><path d="M 14.307820134296533 22.8972985962235 A 27 27 0 0 0 15.870201811896775 21.843458848123582" fill="none" stroke="#008070" stroke-width="2" /><circle cx="14.307820134296533" cy="22.8972985962235" r="1.0" /><circle cx="9.234543869793058" cy="25.371700761219525" r="1.0" /><circle cx="5.613615652079505" cy="26.40998521981275" r="1.0" /><path d="M 3.7576737259217734 26.737237856022396 A 27 27 0 0 0 5.613615652079505 26.40998521981275" fill="none" stroke="#008070" stroke-width="2" /><circle cx="3.7576737259217734" cy="26.737237856022396" r="1.0" /><circle cx="-1.883424791091384" cy="26.934229357015255" r="1.0" /><circle cx="-5.613615652079496" cy="26.409985219812754" r="1.0" /><path d="M -7.442208607058975 25.95406579033461 A 27 27 0 0 0 -5.613615652079496 26.409985219812754" fill="none" stroke="#008070" stroke-width="2" /><circle cx="-7.442208607058975" cy="25.95406579033461" r="1.0" /><path d="M -9.234543869793056 25.37170076121953 A 27 27 0 0 0 -7.442208607058975 25.95406579033461" fill="none" stroke="#008070" stroke-width="2" /><circle cx="-9.234543869793056" cy="25.37170076121953" r="1.0" /><circle cx="-14.307820134296529" cy="22.897298596223504" r="1.0" /><circle cx="-17.35526546153656" cy="20.683199964212406" r="1.0" /><circle cx="-21.27629034738149" cy="16.622859833792777" r="1.0" /><path d="M -22.384014458986123 15.098208393710166 A 27 27 0 0 0 -21.27629034738149 16.622859833792777" fill="none" stroke="#008070" stroke-width="2" /><circle cx="-22.384014458986123" cy="15.098208393710166" r="1.0" /><circle cx="-24.26743925007751" cy="11.836020963305087" r="1.0" /><path d="M -25.033964073303256 10.11437802222963 A 27 27 0 0 0 -24.26743925007751 11.836020963305087" fill="none" stroke="#008070" stroke-width="2" /><circle cx="-25.033964073303256" cy="10.11437802222963" r="1.0" /><path d="M -25.678525939969145 8.343458848123582 A 27 27 0 0 0 -25.033964073303256 10.11437802222963" fill="none" stroke="#008070" stroke-width="2" /><circle cx="-25.678525939969145" cy="8.343458848123582" r="1.0" /><path d="M -26.197984609451904 6.531891181191028 A 27 27 0 0 0 -25.678525939969145 8.343458848123582" fill="none" stroke="#008070" stroke-width="2" /><circle cx="-26.197984609451904" cy="6.531891181191028" r="1.0" /><circle cx="-26.983552329515586" cy="0.9422864109675189" r="1.0" /><path d="M -26.983552329515586 -0.9422864109675243 A 27 27 0 0 0 -26.983552329515586 0.9422864109675189" fill="none" stroke="#008070" stroke-width="2" /><circle cx="-26.983552329515586" cy="-0.9422864109675243" r="1.0" /><path d="M -26.852091174943382 -2.8222685082266326 A 27 27 0 0 0 -26.983552329515586 -0.9422864109675243" fill="none" stroke="#008070" stroke-width="2" /><circle cx="-26.852091174943382" cy="-2.8222685082266326" r="1.0" /><circle cx="-25.678525939969145" cy="-8.34345884812359" r="1.0" /><circle cx="-24.267439250077512" cy="-11.836020963305081" r="1.0" /><path d="M -23.38268590217984 -13.500000000000004 A 27 27 0 0 0 -24.267439250077512 -11.836020963305081" fill="none" stroke="#008070" stroke-width="2" /><circle cx="-23.38268590217984" cy="-13.500000000000004" r="1.0" /><circle cx="-18.755776002392935" cy="-19.422174609143575" r="1.0" /><path d="M -17.355265461536565 -20.683199964212402 A 27 27 0 0 0 -18.755776002392935 -19.422174609143575" fill="none" stroke="#008070" stroke-width="2" /><circle cx="-17.355265461536565" cy="-20.683199964212402" r="1.0" /><path d="M -15.870201811896777 -21.84345884812358 A 27 27 0 0 0 -17.355265461536565 -20.683199964212402" fill="none" stroke="#008070" stroke-width="2" /><circle cx="-15.870201811896777" cy="-21.84345884812358" r="1.0" /><circle cx="-10.981889363046603" cy="-24.665727356350228" r="1.0" /><path d="M -9.234543869793074 -25.371700761219522 A 27 27 0 0 0 -10.981889363046603 -24.665727356350228" fill="none" stroke="#008070" stroke-width="2" /><circle cx="-9.234543869793074" cy="-25.371700761219522" r="1.0" /><circle cx="-3.7576737259217534" cy="-26.7372378560224" r="1.0" /><path d="M -1.8834247910913906 -26.934229357015255 A 27 27 0 0 0 -3.7576737259217534 -26.7372378560224" fill="none" stroke="#008070" stroke-width="2" /><circle cx="-1.8834247910913906" cy="-26.934229357015255" r="1.0" /><path d="M -4.95981953654678e-15 -27.0 A 27 27 0 0 0 -1.8834247910913906 -26.934229357015255" fill="none" stroke="#008070" stroke-width="2" /><circle cx="1.83697019872103e-15" cy="-30.0" r="1.0" /><path d="M 2.0926942123237637 -29.926921507794727 A 30 30 0 0 0 1.83697019872103e-15 -30.0" fill="none" stroke="#008070" stroke-width="2" /><circle cx="2.0926942123237637" cy="-29.926921507794727" r="1.0" /><path d="M 4.175193028801971 -29.708042062247106 A 30 30 0 0 0 2.0926942123237637 -29.926921507794727" fill="none" stroke="#008070" stroke-width="2" /><circle cx="4.175193028801971" cy="-29.708042062247106" r="1.0" /><circle cx="10.260604299770065" cy="-28.19077862357725" r="1.0" /><path d="M 12.202099292274006 -27.406363729278027 A 30 30 0 0 0 10.260604299770065 -28.19077862357725" fill="none" stroke="#008070" stroke-width="2" /><circle cx="12.202099292274006" cy="-27.406363729278027" r="1.0" /><circle cx="17.633557568774194" cy="-24.270509831248425" r="1.0" /><path d="M 19.28362829059618 -22.98133329356934 A 30 30 0 0 0 17.633557568774194 -24.270509831248425" fill="none" stroke="#008070" stroke-width="2" /><circle cx="19.28362829059618" cy="-22.98133329356934" r="1.0" /><circle cx="26.96382138897501" cy="-13.151134403672323" r="1.0" /><path d="M 27.81551563700362 -11.23819780247736 A 30 30 0 0 0 26.96382138897501 -13.151134403672323" fill="none" stroke="#008070" stroke-width="2" /><circle cx="27.81551563700362" cy="-11.23819780247736" r="1.0" /><circle cx="29.544232590366242" cy="-5.2094453300079095" r="1.0" /><circle cx="29.981724810572874" cy="-1.0469849010750292" r="1.0" /><circle cx="29.8356568610482" cy="3.1358538980296036" r="1.0" /><circle cx="29.108871788279895" cy="7.257656867990032" r="1.0" /><path d="M 28.531695488854606 9.270509831248422 A 30 30 0 0 0 29.108871788279895 7.257656867990032" fill="none" stroke="#008070" stroke-width="2" /><circle cx="28.531695488854606" cy="9.270509831248422" r="1.0" /><circle cx="26.96382138897501" cy="13.151134403672323" r="1.0" /><circle cx="24.87112717665125" cy="16.775787104122408" r="1.0" /><path d="M 23.64032260820166 18.469844259769744 A 30 30 0 0 0 24.87112717665125 16.775787104122408" fill="none" stroke="#008070" stroke-width="2" /><circle cx="23.64032260820166" cy="18.469844259769744" r="1.0" /><circle cx="19.28362829059618" cy="22.98133329356934" r="1.0" /><circle cx="14.084146883576725" cy="26.488427785767808" r="1.0" /><circle cx="4.175193028801971" cy="29.708042062247106" r="1.0" /><path d="M 2.0926942123237637 29.926921507794727 A 30 30 0 0 0 4.175193028801971 29.708042062247106" fill="none" stroke="#008070" stroke-width="2" /><circle cx="2.0926942123237637" cy="29.926921507794727" r="1.0" /><circle cx="-6.2373507245327735" cy="29.34442802201417" r="1.0" /><circle cx="-10.260604299770062" cy="28.190778623577252" r="1.0" /><circle cx="-14.084146883576716" cy="26.48842778576781" r="1.0" /><circle cx="-17.63355756877419" cy="24.270509831248425" r="1.0" /><path d="M -19.28362829059618 22.98133329356934 A 30 30 0 0 0 -17.63355756877419 24.270509831248425" fill="none" stroke="#008070" stroke-width="2" /><circle cx="-19.28362829059618" cy="22.98133329356934" r="1.0" /><path d="M -20.83975111376991 21.58019401015954 A 30 30 0 0 0 -19.28362829059618 22.98133329356934" fill="none" stroke="#008070" stroke-width="2" /><circle cx="-20.83975111376991" cy="21.58019401015954" r="1.0" /><path d="M -22.29434476432182 20.07391819076575 A 30 30 0 0 0 -20.83975111376991 21.58019401015954" fill="none" stroke="#008070" stroke-width="2" /><circle cx="-22.29434476432182" cy="20.07391819076575" r="1.0" /><path d="M -23.640322608201657 18.46984425976975 A 30 30 0 0 0 -22.29434476432182 20.07391819076575" fill="none" stroke="#008070" stroke-width="2" /><circle cx="-23.640322608201657" cy="18.46984425976975" r="1.0" /><path d="M -24.87112717665125 16.775787104122408 A 30 30 0 0 0 -23.640322608201657 18.46984425976975" fill="none" stroke="#008070" stroke-width="2" /><circle cx="-24.87112717665125" cy="16.775787104122408" r="1.0" /><path d="M -25.98076211353316 14.999999999999998 A 30 30 0 0 0 -24.87112717665125 16.775787104122408" fill="none" stroke="#008070" stroke-width="2" /><circle cx="-25.98076211353316" cy="14.999999999999998" r="1.0" /><circle cx="-29.108871788279895" cy="7.257656867990032" r="1.0" /><circle cx="-29.8356568610482" cy="3.135853898029612" r="1.0" /><circle cx="-29.981724810572874" cy="-1.046984901075027" r="1.0" /><circle cx="-29.544232590366242" cy="-5.209445330007914" r="1.0" /><path d="M -29.108871788279895 -7.2576568679900255 A 30 30 0 0 0 -29.544232590366242 -5.209445330007914" fill="none" stroke="#008070" stroke-width="2" /><circle cx="-29.108871788279895" cy="-7.2576568679900255" r="1.0" /><circle cx="-27.81551563700362" cy="-11.23819780247736" r="1.0" /><circle cx="-25.980762113533157" cy="-15.000000000000004" r="1.0" /><path d="M -24.871127176651257 -16.7757871041224 A 30 30 0 0 0 -25.980762113533157 -15.000000000000004" fill="none" stroke="#008070" stroke-width="2" /><circle cx="-24.871127176651257" cy="-16.7757871041224" r="1.0" /><path d="M -23.640322608201668 -18.469844259769737 A 30 30 0 0 0 -24.871127176651257 -16.7757871041224" fill="none" stroke="#008070" stroke-width="2" /><circle cx="-23.640322608201668" cy="-18.469844259769737" r="1.0" /><path d="M -22.294344764321828 -20.073918190765745 A 30 30 0 0 0 -23.640322608201668 -18.469844259769737" fill="none" stroke="#008070" stroke-width="2" /><circle cx="-22.294344764321828" cy="-20.073918190765745" r="1.0" /><path d="M -20.83975111376993 -21.580194010159527 A 30 30 0 0 0 -22.294344764321828 -20.073918190765745" fill="none" stroke="#008070" stroke-width="2" /><circle cx="-20.83975111376993" cy="-21.580194010159527" r="1.0" /><path d="M -19.283628290596184 -22.981333293569335 A 30 30 0 0 0 -20.83975111376993 -21.580194010159527" fill="none" stroke="#008070" stroke-width="2" /><circle cx="-19.283628290596184" cy="-22.981333293569335" r="1.0" /><path d="M -17.633557568774197 -24.27050983124842 A 30 30 0 0 0 -19.283628290596184 -22.981333293569335" fill="none" stroke="#008070" stroke-width="2" /><circle cx="-17.633557568774197" cy="-24.27050983124842" r="1.0" /><path d="M -15.897577926996151 -25.44144288469278 A 30 30 0 0 0 -17.633557568774197 -24.27050983124842" fill="none" stroke="#008070" stroke-width="2" /><circle cx="-15.897577926996151" cy="-25.44144288469278" r="1.0" /><circle cx="-10.260604299770081" cy="-28.190778623577245" r="1.0" /><path d="M -8.269120674509967 -28.83785087814957 A 30 30 0 0 0 -10.260604299770081 -28.190778623577245" fill="none" stroke="#008070" stroke-width="2" /><circle cx="-8.269120674509967" cy="-28.83785087814957" r="1.0" /><path d="M -6.237350724532794 -29.344428022014167 A 30 30 0 0 0 -8.269120674509967 -28.83785087814957" fill="none" stroke="#008070" stroke-width="2" /><circle cx="-6.237350724532794" cy="-29.344428022014167" r="1.0" /><circle cx="2.0206672185931327e-15" cy="-33.0" r="1.0" /><path d="M 2.30196363355614 -32.9196136585742 A 33 33 0 0 0 2.0206672185931327e-15 -33.0" fill="none" stroke="#008070" stroke-width="2" /><circle cx="2.30196363355614" cy="-32.9196136585742" r="1.0" /><path d="M 4.592712331682168 -32.678846268471816 A 33 33 0 0 0 2.30196363355614 -32.9196136585742" fill="none" stroke="#008070" stroke-width="2" /><circle cx="4.592712331682168" cy="-32.678846268471816" r="1.0" /><circle cx="13.422309221501408" cy="-30.14700010220583" r="1.0" /><circle cx="17.48733571969576" cy="-27.985587173162056" r="1.0" /><circle cx="21.2119911196558" cy="-25.279466622926275" r="1.0" /><circle cx="24.52377924075401" cy="-22.081310009842323" r="1.0" /><circle cx="0" cy="0" fill="black" r="4" /><circle cx="0" cy="-6" fill="black" r="1.0" /><circle cx="4.242640687119286" cy="-4.242640687119285" fill="black" r="1.0" /><circle cx="-4.242640687119286" cy="-4.242640687119285" fill="black" r="1.0" /><path d="M -4.242640687119286 -4.242640687119285 A 6 6 0 1 0 4.242640687119286 -4.242640687119285" fill="none" stroke="black" stroke-width="2" /></g><text fill="black" style="font-size:5px; font-weight: bold; text-anchor: middle;" x="0" y="39">"I like it actually!" - CheaterCodes 2022</text></svg>